<?xml version="1.0" encoding="utf-8"?>
<!-- Generator: Adobe Illustrator 23.0.5, SVG Export Plug-In . SVG Version: 6.00 Build 0)  -->
<svg version="1.2" baseProfile="tiny" id="Capa_1" xmlns="http://www.w3.org/2000/svg" xmlns:xlink="http://www.w3.org/1999/xlink"
	 x="0px" y="0px" viewBox="0 0 32 32" xml:space="preserve">
<g>
	<path fill="#474863" d="M15.1,3.6c1.1,0,2.4,0,3.5,0c0.7,0,1.3,0,2,0c1.5,0,3.1,0.2,4.6,0.9c0.5,0.2,0.9,0.5,1.4,0.9
		c1,0.8,1.5,1.9,1.8,3.1c0.2,0.7,0.2,1.5,0.1,2.4c-0.1,0.8-0.3,1.5-0.7,2.3c-0.7,1-1.5,1.6-2.6,2c-0.7,0.2-1.2,0.4-2,0.5
		c0.7,0.2,1.4,0.3,2,0.5c1.2,0.5,2.4,1.1,3,2.3c0.4,0.7,0.7,1.5,0.7,2.4c0.1,1,0.1,1.9-0.1,2.8c-0.4,2.2-1.8,3.6-3.9,4.3
		c-1.1,0.3-2.1,0.6-3.3,0.6c-5.8,0.2-11.6,0-17.4,0.1c-0.1,0-0.2,0.1-0.2-0.1s0.1-0.2,0.2-0.4c1-1.1,2-2.4,2.9-3.5
		c1-1.2,2-2.4,3.1-3.7c0.3-0.3,0.6-0.7,1-1.1c0,1.2,0,2.4,0,3.6c0,0.2,0.1,0.3,0.3,0.3c1.9,0,3.8,0,5.7,0c0.7,0,1.5,0,2.2-0.2
		c0.6-0.1,1.1-0.3,1.5-0.8c0.6-0.8,0.5-1.6,0.4-2.5c-0.1-0.4-0.2-0.8-0.6-1.1c-0.7-0.7-1.4-0.8-2.2-0.8c-2,0-4.3,0-6.3,0
		c0-0.1,0-0.1,0.1-0.2c1-1.2,2-2.4,3-3.6c0.1-0.3,0.7-0.6,0.7-1c1-0.1,2,0.2,3,0c0.8-0.2,1.5-0.6,1.7-1.5c0.1-0.5,0.2-0.9,0.1-1.5
		c-0.1-0.8-0.7-1.5-1.5-1.7c-0.7-0.2-1.4-0.2-2-0.2c-1.3,0-2.9,0-4.2,0c0.2-1.1,0.8-2,1.2-3.1C14.7,4.6,15.1,4.1,15.1,3.6z"/>
	<path fill="#E35948" d="M11.3,19.8c-0.4,0.3-0.7,0.7-1,1.1c-1.1,1.2-2,2.4-3.1,3.7c-1,1.1-2,2.4-2.9,3.5c-0.1,0.1-0.2,0.2-0.2,0.4
		c-0.3,0-0.2-0.2-0.2-0.3c0.5-1.3,0.9-2.7,1.4-4c0.7-1.8,1.2-3.6,1.9-5.4c0.2-0.5,0.2-0.5-0.4-0.5c-1.2,0-2.4,0-3.7,0
		c0.3-0.4,0.6-0.7,0.9-1.1c1-1.2,2-2.4,2.9-3.6c0.8-1,1.6-2,2.4-2.9c1-1.2,2-2.4,2.9-3.6c0.7-0.8,1.4-1.6,2-2.4
		c0.2-0.3,0.5-0.6,0.8-0.9c0,0.6-0.3,1.1-0.6,1.6c-0.3,1.1-0.8,2-1.1,3.1c-0.1,0.1-0.2,0.2-0.2,0.3c-0.6,1.4-1.1,2.8-1.7,4.2
		c-0.2,0.6-0.2,0.6,0.4,0.6c1.5,0,2.9,0,4.3,0c-0.1,0.4-0.4,0.6-0.6,0.8c-1,1.2-2,2.4-3,3.6c-0.1,0.1-0.1,0.1-0.1,0.2
		C12.1,18.6,11.7,19.2,11.3,19.8z"/>
	<path fill="#E35948" d="M3,16.7c0-0.5,0.2-1,0.2-1.5c0.4-2,0.8-3.8,1.1-5.8C4.7,7.6,5,5.7,5.4,3.9c0.1-0.2,0.2-0.3,0.4-0.3
		c2.5,0,5.1,0,7.7,0c0.1,0,0.2-0.1,0.3,0.1c0.1,0.2-0.1,0.2-0.2,0.3C13,4.7,12.5,5.4,12,6c-0.7,1-1.5,1.9-2.2,2.8
		c-0.7,0.7-1.5,1.5-2.2,2.4c-0.8,1-1.6,2-2.5,3C4.4,15,3.7,15.8,3,16.7L3,16.7z"/>
</g>
</svg>
