<?xml version="1.0" encoding="utf-8"?>
<!-- Generator: Adobe Illustrator 23.0.5, SVG Export Plug-In . SVG Version: 6.00 Build 0)  -->
<svg version="1.1" id="Capa_1" xmlns="http://www.w3.org/2000/svg" xmlns:xlink="http://www.w3.org/1999/xlink" x="0px" y="0px"
	 viewBox="0 0 32 32" style="enable-background:new 0 0 32 32;" xml:space="preserve">
<style type="text/css">
	.st0{fill:#474863;}
	.st1{fill:#E35948;}
</style>
<g>
	<path class="st0" d="M15,0.8c1.4,0,2.9,0,4.3,0c0.8,0,1.6,0,2.5,0c1.9,0,3.8,0.3,5.6,1.1C28,2.1,28.5,2.5,29.1,3
		c1.2,1,1.9,2.3,2.2,3.8c0.2,0.9,0.2,1.9,0.1,2.9c-0.1,1-0.4,1.9-0.9,2.8c-0.8,1.2-1.9,2-3.2,2.4c-0.8,0.3-1.5,0.5-2.4,0.6
		c0.9,0.3,1.7,0.4,2.4,0.6c1.5,0.6,2.9,1.4,3.7,2.8c0.5,0.9,0.8,1.8,0.9,2.9c0.1,1.2,0.1,2.3-0.1,3.4c-0.5,2.7-2.2,4.4-4.8,5.3
		c-1.3,0.4-2.6,0.7-4,0.7c-7.1,0.2-14.2,0-21.3,0.1c-0.1,0-0.3,0.1-0.3-0.1c0-0.2,0.1-0.3,0.3-0.5c1.2-1.4,2.4-2.9,3.6-4.3
		c1.2-1.5,2.5-3,3.8-4.5c0.4-0.4,0.7-0.9,1.2-1.3c0,1.5,0,2.9,0,4.4c0,0.3,0.1,0.4,0.4,0.4c2.3,0,4.7,0,7,0c0.9,0,1.8,0,2.7-0.2
		c0.7-0.1,1.4-0.4,1.8-1c0.7-1,0.6-2,0.5-3.1c-0.1-0.5-0.3-1-0.7-1.4c-0.8-0.8-1.7-1-2.7-1c-2.5,0-5,0-7.4,0c0-0.1,0-0.1,0.1-0.2
		c1.2-1.5,2.5-2.9,3.7-4.4c0.3-0.3,0.7-0.6,0.7-1c1.2-0.1,2.4,0,3.6-0.2c1-0.2,1.9-0.7,2.1-1.9c0.1-0.6,0.2-1.1,0.1-1.8
		c-0.1-1-0.8-1.9-1.8-2.1c-0.8-0.2-1.7-0.3-2.5-0.3c-1.6,0-3.3,0-4.9,0c0.3-1.3,1-2.5,1.4-3.8C14.6,2.1,15,1.5,15,0.8z"/>
	<path class="st1" d="M10.2,20.6c-0.5,0.4-0.8,0.9-1.2,1.3c-1.3,1.5-2.5,3-3.8,4.5c-1.2,1.4-2.4,2.9-3.6,4.3
		c-0.1,0.1-0.2,0.3-0.3,0.5c-0.4,0-0.2-0.2-0.2-0.4c0.6-1.6,1.1-3.3,1.7-4.9c0.8-2.2,1.5-4.4,2.3-6.6c0.2-0.6,0.2-0.6-0.5-0.6
		c-1.5,0-2.9,0-4.5,0c0.4-0.5,0.7-0.9,1.1-1.4c1.2-1.5,2.4-2.9,3.6-4.4c1-1.2,2-2.4,3-3.6c1.2-1.5,2.4-2.9,3.6-4.4
		c0.8-1,1.7-2,2.5-3c0.3-0.4,0.6-0.7,1-1.1c0,0.7-0.4,1.3-0.7,2c-0.4,1.3-1,2.5-1.4,3.8c-0.1,0.1-0.2,0.3-0.2,0.4
		c-0.7,1.7-1.4,3.4-2.1,5.1c-0.3,0.7-0.3,0.7,0.5,0.7c1.8,0,3.5,0,5.3,0c-0.1,0.5-0.5,0.7-0.7,1c-1.2,1.5-2.5,2.9-3.7,4.4
		c-0.1,0.1-0.1,0.1-0.1,0.2C11.2,19.2,10.7,19.9,10.2,20.6z"/>
	<path class="st1" d="M0,16.8c0-0.6,0.2-1.2,0.3-1.8c0.5-2.4,1-4.7,1.4-7.1C2.2,5.7,2.6,3.4,3,1.2c0.1-0.3,0.2-0.4,0.5-0.4
		c3.1,0,6.2,0,9.4,0c0.1,0,0.3-0.1,0.4,0.1c0.1,0.2-0.1,0.3-0.2,0.4c-0.7,0.8-1.4,1.7-2,2.5c-0.9,1.1-1.8,2.2-2.7,3.3
		C7.5,8,6.6,9,5.7,10.1c-1,1.2-2,2.5-3.1,3.7c-0.8,1-1.7,2-2.5,3.1C0.1,16.8,0,16.8,0,16.8z"/>
</g>
</svg>
