<?xml version="1.0" encoding="utf-8"?>
<!-- Generator: Adobe Illustrator 23.0.5, SVG Export Plug-In . SVG Version: 6.00 Build 0)  -->
<svg version="1.2" baseProfile="tiny" id="Capa_1" xmlns="http://www.w3.org/2000/svg" xmlns:xlink="http://www.w3.org/1999/xlink"
	 x="0px" y="0px" viewBox="0 0 112 26" xml:space="preserve">
<g>
	<path fill="#FFFFFF" d="M7.9,1.4C8,1.1,8.3,1,8.7,1c1.4,0.1,2.7-0.1,4.1,0.1c0.9,0.1,1.7,0.3,2.4,0.8c1.4,0.9,2,2.4,1.6,4.3
		c-0.3,1.4-1.3,2.4-3,2.7c-0.2,0-0.3,0-0.5,0.2c0.6,0.1,1.2,0.2,1.8,0.5c1,0.5,1.7,1.2,1.9,2.3c0.3,1.5,0.2,3-0.9,4.2
		c-0.8,0.8-1.8,1.1-2.8,1.3c-0.8,0.1-1.6,0.1-2.4,0.1c-3.3,0-6.6,0-9.9,0c-0.2,0-0.6,0.2-0.4-0.3c0.2,0,0.3-0.1,0.4-0.2
		c0.5-0.7,1.1-1.3,1.6-2c0.9-1.1,1.8-2.2,2.8-3.3c0,0.8,0,1.5,0,2.3c0,0.2,0,0.3,0.2,0.3c1.7,0,3.3,0,5,0c0.7,0,1.3-0.3,1.5-1
		c0.4-1.6-0.1-2.6-1.8-2.6c-0.6,0-1.3,0-1.9,0c-0.7,0-1.3,0-2,0C6.6,10.2,7,9.9,7.3,9.5c0.5-0.6,1.1-1.2,1.5-1.9c0.5,0,0.9,0,1.4,0
		c0.6,0,1.2-0.1,1.6-0.7c0.8-1.2,0.1-2.6-1.3-2.7c-1.1,0-2.3,0-3.4-0.1C6.9,4,7,3.9,7.1,3.7c0.2-0.6,0.5-1.2,0.7-1.8
		C7.9,1.7,8,1.6,7.9,1.4z"/>
	<path fill="#FFFFFF" d="M38.7,15.5c-1.6,2-5.5,1.7-7.2,0.1c-1.7-1.7-1.8-5.1-0.1-6.9C33,7.1,37,6.6,38.8,8.8c0-0.4,0-0.6,0-0.9
		c0-0.3,0.1-0.3,0.3-0.3c0.9,0,1.8,0,2.8,0c0.3,0,0.3,0.1,0.3,0.3c0,3.1,0,6.3,0,9.4c0,1.8-1,3-2.8,3.5c-2.1,0.6-4.2,0.5-6.3,0
		c-1.7-0.4-2.5-1.5-2.6-3c0-0.2,0-0.3,0.3-0.3c1,0,2,0,3,0c0.1,0,0.2,0,0.2,0.2c0.1,0.9,0.7,1.2,1.5,1.3c0.8,0.1,1.5,0.1,2.3-0.1
		c0.6-0.2,0.9-0.6,1-1.3C38.8,16.9,38.8,16.2,38.7,15.5z M38.8,12.1c0-0.3,0-0.5,0-0.8c0-0.4-0.1-0.6-0.4-0.8
		c-0.9-0.7-2.5-0.9-3.5-0.4c-0.2,0.1-0.4,0.2-0.5,0.4c-0.6,0.8-0.7,1.6-0.4,2.5c0.3,0.8,0.9,1.2,1.7,1.4c0.6,0.1,1.2,0.1,1.7-0.1
		c1.1-0.4,1.6-0.6,1.4-1.9C38.7,12.4,38.8,12.2,38.8,12.1z"/>
	<path fill="#FFFFFF" d="M105.7,11c0.7-1.1,1.3-2.1,2-3.1c0.2-0.2,0.3-0.4,0.6-0.3c1.2,0,2.4,0,3.6,0c0.1,0.2-0.1,0.3-0.2,0.4
		c-1,1.4-2,2.8-3,4.2c-0.2,0.3-0.2,0.5,0,0.8c1.1,1.5,2.1,3.1,3.3,4.7c-1,0-1.9-0.1-2.9,0c-0.9,0.1-1.5-0.2-1.9-1.1s-1-1.6-1.5-2.5
		c-1.6,2.4-3.2,4.7-4.7,7.1c-0.8,1.2-1.6,2.3-2.3,3.5c-0.1,0.2-0.2,0.3-0.5,0.3c-1.2,0-2.4,0-3.6,0c-0.1-0.2,0.1-0.3,0.2-0.5
		c2.6-3.8,5.3-7.7,7.9-11.5c0.2-0.3,0.2-0.5,0-0.8c-1.1-1.5-2.1-3-3.2-4.5c0.1-0.2,0.2-0.1,0.4-0.1c1.1,0,2.1,0,3.2,0
		c0.3,0,0.5,0.1,0.7,0.4C104.4,8.9,105,9.9,105.7,11z"/>
	<path fill="#FFFFFF" d="M46.6,9c1.4-1.8,4.2-2.2,6-1.1c1.2,0.8,1.6,2,1.7,3.4c0.1,2,0,3.9,0,5.9c0,0.3-0.1,0.4-0.4,0.4
		c-0.9,0-1.8,0-2.7,0c-0.3,0-0.4-0.1-0.4-0.4c0-1.7,0-3.4,0-5.1c0-1.1-0.4-1.7-1.2-1.9c-1-0.2-1.9,0-2.9,0.4
		c-0.3,0.1-0.2,0.3-0.2,0.5c0,2,0,3.9,0,5.9c0,0.4-0.1,0.5-0.5,0.5c-0.9,0-1.7,0-2.6,0c-0.3,0-0.4-0.1-0.4-0.4c0-4.3,0-8.6,0-13
		c0-0.3,0.1-0.4,0.4-0.4c0.9,0,1.8,0,2.8,0c0.3,0,0.4,0.1,0.4,0.4c0,1.5,0,3,0,4.4C46.6,8.7,46.6,8.8,46.6,9z"/>
	<path fill="#FFFFFF" d="M77.1,7.3c0.7,0,1.4,0.1,2.1,0.2c2.7,0.7,4.2,2.7,3.9,5.6c-0.3,2.9-2.3,4.3-4.8,4.6
		c-1.2,0.2-2.4,0.1-3.6-0.2c-2.6-0.6-3.9-2.4-3.9-5.1c0.1-3,1.9-4.8,5.1-5C76.4,7.3,76.7,7.3,77.1,7.3z M79.6,12.5
		c0-1-0.2-1.8-1.1-2.3c-1.9-1.1-3.9,0-4,2.2c0,0.9,0.1,1.8,1,2.4c1,0.6,2,0.6,3,0.1C79.4,14.4,79.6,13.5,79.6,12.5z"/>
	<path fill="#FFFFFF" d="M87.2,9c1.5-1.7,3.7-2.2,5.7-1.4c1.3,0.6,1.8,1.6,2,2.9c0.2,1.1,0.1,2.2,0.1,3.3s0,2.1,0,3.2
		c0,0.2,0,0.4-0.3,0.4c-0.9,0-1.9,0-2.8,0c-0.3,0-0.3-0.1-0.3-0.4c0-1.6,0-3.3,0-4.9c0-0.2,0-0.5,0-0.7c-0.1-0.9-0.6-1.4-1.5-1.5
		c-0.8-0.1-1.6,0-2.4,0.4c-0.3,0.1-0.4,0.3-0.4,0.6c0,2,0,3.9,0,5.9c0,0.4-0.1,0.5-0.5,0.5c-0.9,0-1.7,0-2.6,0
		c-0.3,0-0.4-0.1-0.4-0.4c0-3.1,0-6.2,0-9.3c0-0.3,0.1-0.4,0.4-0.4c0.9,0,1.8,0,2.7,0c0.3,0,0.4,0.1,0.4,0.4
		C87.2,8.3,87.2,8.6,87.2,9z"/>
	<path fill="#FFFFFF" d="M59.8,12.3c0,0.6,0,1.2,0,1.8s0.2,0.8,0.8,0.8s1.2,0,1.9,0c0.3,0,0.4,0.1,0.4,0.4c0,0.6,0,1.3,0,1.9
		c0,0.2,0,0.3-0.2,0.3c-1.4,0-2.7,0.1-4.1-0.2c-1.3-0.3-2.1-1.2-2.2-2.5c-0.1-1.5,0-2.9,0-4.4c0-0.4-0.1-0.5-0.5-0.5
		c-0.3,0-0.7,0-1,0s-0.3-0.1-0.3-0.3c0-0.6,0-1.2,0-1.8c0-0.3,0.1-0.4,0.3-0.3l0,0c0.5,0,1.1,0.2,1.4-0.1c0.2-0.3,0.1-0.9,0.1-1.4
		c-0.1-0.5,0.1-0.8,0.7-0.9c0.8-0.1,1.6-0.3,2.4-0.5c0.3-0.1,0.4,0,0.4,0.3c0,0.7,0,1.4,0,2.2c0,0.4,0.1,0.5,0.5,0.4
		c0.8,0,1.5,0,2.3,0c0.2,0,0.4,0.1,0.3,0.3c0,0.6,0,1.2,0,1.8c0,0.3-0.1,0.4-0.4,0.3c-0.8,0-1.5,0-2.3,0c-0.3,0-0.4,0.1-0.4,0.4
		C59.8,11,59.8,11.6,59.8,12.3L59.8,12.3z"/>
	<path fill="#FFFFFF" d="M66.9,8.9c1-1.3,2.4-1.7,3.9-1.6c0.3,0,0.4,0.1,0.3,0.4c0,0.8,0,1.6,0,2.4c0,0.4-0.1,0.4-0.4,0.4
		c-1.1-0.1-2.2,0-3.2,0.4c-0.3,0.1-0.4,0.3-0.4,0.7c0,1.9,0,3.7,0,5.6c0,0.3-0.1,0.4-0.4,0.4c-0.9,0-1.8,0-2.7,0
		c-0.3,0-0.4-0.1-0.4-0.4c0-3.1,0-6.2,0-9.3c0-0.3,0.1-0.4,0.4-0.4c0.9,0,1.7,0,2.6,0c0.3,0,0.4,0.1,0.4,0.4
		C66.9,8.2,66.9,8.6,66.9,8.9z"/>
	<path fill="#FFFFFF" d="M21.5,9.1c1-1.5,2.4-1.8,3.9-1.8c0.3,0,0.4,0.1,0.4,0.4c0,0.8,0,1.6,0,2.5c0,0.3-0.1,0.3-0.4,0.3
		c-1.1-0.1-2.3,0-3.3,0.5c-0.3,0.1-0.4,0.3-0.4,0.7c0,1.8,0,3.7,0,5.5c0,0.3,0,0.5-0.4,0.5c-0.9,0-1.8,0-2.7,0
		c-0.3,0-0.4-0.1-0.4-0.4c0-3.1,0-6.2,0-9.3c0-0.3,0.1-0.4,0.4-0.4c0.9,0,1.7,0,2.6,0c0.3,0,0.4,0.1,0.4,0.4
		C21.4,8.3,21.5,8.6,21.5,9.1z"/>
	<path fill="#D3343F" d="M7.9,1.4c0.1,0.2,0,0.3,0,0.5C7.6,2.5,7.3,3.1,7.1,3.7C7,3.9,6.9,4,7,4.2C6.9,4.3,6.8,4.4,6.8,4.5
		C6.4,5.4,6,6.3,5.7,7.2C5.5,7.6,5.6,7.6,6,7.6c0.9,0,1.9,0,2.8,0c-0.4,0.7-1,1.2-1.5,1.9C7,9.9,6.6,10.2,6.4,10.7
		c-0.4,0.3-0.7,0.6-0.9,1c-0.9,1.1-1.8,2.2-2.8,3.3c-0.5,0.7-1.1,1.3-1.6,2c-0.1,0.1-0.2,0.2-0.4,0.2c0.6-1.7,1.1-3.3,1.7-5
		c0.2-0.5,0.3-1,0.5-1.5c-0.8,0-1.5,0-2.3,0c-0.1,0-0.3,0.1-0.4-0.1c-0.1-0.1,0.1-0.2,0.2-0.3c2.1-2.5,4.1-4.9,6.2-7.4
		C7,2.4,7.4,1.9,7.9,1.4z"/>
	<path fill="#FFFFFF" d="M95.8,12.5c0-1.5,0-3.1,0-4.6c0-0.3,0.1-0.4,0.4-0.4c0.9,0,1.8,0,2.8,0c0.3,0,0.3,0.1,0.3,0.3
		c0,3.1,0,6.2,0,9.4c0,0.3-0.1,0.3-0.4,0.3c-0.9,0-1.8,0-2.7,0c-0.3,0-0.4-0.1-0.4-0.4C95.8,15.6,95.8,14,95.8,12.5z"/>
	<path fill="#FFFFFF" d="M26.1,12.5c0-1.5,0-3.1,0-4.6c0-0.3,0.1-0.4,0.4-0.4c0.9,0,1.8,0,2.8,0c0.3,0,0.4,0.1,0.3,0.4
		c0,3.1,0,6.2,0,9.3c0,0.3-0.1,0.4-0.4,0.4c-0.9,0-1.8,0-2.8,0c-0.3,0-0.4-0.1-0.4-0.4C26.1,15.6,26.1,14.1,26.1,12.5z"/>
	<path fill="#D3343F" d="M0,9.5c0.2-0.9,0.4-1.8,0.5-2.6C0.9,5,1.3,3.2,1.6,1.4c0-0.2,0-0.4,0.3-0.4c1.7,0,3.4,0,5.3,0
		c-2.4,2.9-4.7,5.7-7,8.5C0.1,9.5,0,9.5,0,9.5z"/>
	<path fill="#FFFFFF" d="M91.8,23.3c0.6,0.5,1.2,1,1.8,1.5c-0.7,0.1-1.2,0.1-1.7-0.5c-0.3-0.4-0.7-0.6-1.1-0.9
		c-0.1-0.1-0.2-0.2-0.3-0.1c-0.1,0.1-0.1,0.2-0.1,0.3c0,0.3,0,0.6,0,0.9s0,0.4-0.3,0.4s-0.4-0.1-0.4-0.4c0-1.3,0-2.6,0-3.8
		c0-0.4,0.1-0.4,0.4-0.4c0.6,0,1.2-0.1,1.9,0.1c0.9,0.2,1.3,0.6,1.4,1.3c0,0.8-0.4,1.3-1.2,1.6C92.1,23.3,92,23.3,91.8,23.3z
		 M90.5,21.8c0,0.2,0,0.4,0,0.6c0,0.1,0,0.2,0.1,0.2c0.6,0,1.1,0.1,1.6-0.1c0.3-0.2,0.5-0.4,0.5-0.8c-0.1-0.4-0.3-0.6-0.7-0.6
		c-0.2,0-0.5-0.1-0.7-0.1C90.5,20.9,90.5,20.9,90.5,21.8z"/>
	<path fill="#FFFFFF" d="M64.4,22.6c0-0.7,0-1.3,0-2c0-0.3,0-0.4,0.3-0.4c0.9,0,1.8,0,2.8,0c0.3,0,0.3,0.2,0.3,0.4
		c0,0.3-0.1,0.3-0.3,0.3c-0.6,0-1.3,0-1.9,0c-0.3,0-0.4,0.1-0.4,0.4c0,0.9,0,0.9,0.9,0.9c0.5,0,1,0,1.4,0c0.3,0,0.3,0.2,0.3,0.4
		c0,0.2-0.1,0.3-0.3,0.3c-0.6,0-1.3,0-1.9,0c-0.3,0-0.4,0-0.4,0.3c0,1,0,1,0.9,1c0.5,0,1,0,1.5,0c0.3,0,0.3,0.1,0.3,0.3
		c0,0.2,0,0.4-0.3,0.4c-0.9,0-1.9,0-2.8,0c-0.3,0-0.3-0.1-0.3-0.3C64.4,23.9,64.4,23.3,64.4,22.6z"/>
	<path fill="#FFFFFF" d="M74,22.6c0-0.6,0-1.3,0-1.9c0-0.3,0-0.4,0.3-0.4c0.9,0,1.8,0,2.7,0c0.3,0,0.3,0.1,0.3,0.4S77.2,21,77,21
		c-0.6,0-1.2,0-1.9,0c-0.3,0-0.5,0.1-0.5,0.4c0,0.8,0,0.8,0.8,0.8c0.5,0,1,0,1.5,0c0.3,0,0.3,0.1,0.3,0.3c0,0.3-0.1,0.3-0.3,0.3
		c-0.7,0-1.3,0-2,0c-0.2,0-0.3,0.1-0.3,0.3c0,1-0.1,1,0.9,1c0.5,0,1,0,1.5,0c0.3,0,0.3,0.1,0.3,0.3c0,0.2,0.1,0.4-0.3,0.4
		c-1,0-1.9,0-2.9,0c-0.3,0-0.3-0.1-0.3-0.3C74,23.9,74,23.2,74,22.6z"/>
	<path fill="#FFFFFF" d="M97.6,3.9c0.5,0,0.9,0,1.4,0c0.3,0,0.4,0.1,0.4,0.4c0,0.6,0,1.3,0,1.9c0,0.3-0.1,0.4-0.4,0.4
		c-0.9,0-1.9,0-2.8,0c-0.2,0-0.3-0.1-0.3-0.3c0-0.7,0-1.3,0-2C95.9,4,96,4,96.3,4C96.6,3.9,97.1,3.9,97.6,3.9z"/>
	<path fill="#FFFFFF" d="M27.8,3.9c0.5,0,0.9,0,1.4,0c0.2,0,0.4,0,0.3,0.3c0,0.7,0,1.3,0,2c0,0.2-0.1,0.3-0.3,0.3c-1,0-1.9,0-2.9,0
		C26,6.5,26,6.4,26,6.2c0-0.7,0-1.3,0-2c0-0.3,0.1-0.3,0.3-0.3C26.9,3.9,27.4,3.9,27.8,3.9z"/>
	<path fill="#FFFFFF" d="M82.8,21.6c-0.5-0.4-1-0.7-1.6-0.7c-1,0-1.8,0.7-1.8,1.7s0.8,1.7,1.8,1.6c0.4,0,0.8-0.1,1.1-0.4
		c0.2-0.1,0.3-0.4,0.5-0.2c0.1,0.1,0,0.8-0.2,0.9c-0.6,0.4-1.3,0.5-2.1,0.4c-1.3-0.3-2.1-1.4-1.9-2.8c0.2-1.2,1.3-2,2.6-1.9
		c0.3,0,0.5,0.1,0.8,0.1C82.9,20.6,82.9,20.7,82.8,21.6z"/>
	<path fill="#FFFFFF" d="M105.7,21.6c-0.5-0.4-1-0.7-1.6-0.7c-1.1,0-1.9,0.8-1.8,1.8s1,1.7,2,1.5c0.4-0.1,0.8-0.2,1.1-0.5
		c0.1-0.1,0.1-0.2,0.3-0.1c0.1,0.1,0.1,0.2,0.1,0.3c0.1,0.4-0.1,0.6-0.5,0.8c-1,0.5-2.2,0.4-3-0.3c-0.7-0.6-0.9-1.7-0.6-2.6
		c0.5-1.5,2.6-2.1,3.8-1.1C105.9,20.9,105.7,21.2,105.7,21.6z"/>
	<path fill="#FFFFFF" d="M86.1,20.3c0.7,0,1.3,0,2,0c0.3,0,0.3,0.1,0.3,0.4c0,0.2,0,0.4-0.3,0.4c-0.4,0-0.8,0-1.2,0
		c-0.3,0-0.4,0.1-0.4,0.4c0,1,0,2.1,0,3.1c0,0.3,0,0.4-0.4,0.4c-0.3,0-0.4-0.1-0.4-0.4c0-1,0-2.1,0-3.1c0-0.3-0.1-0.4-0.4-0.4
		c-0.4,0-0.8,0-1.2,0c-0.3,0-0.3-0.1-0.3-0.3c0-0.3,0-0.4,0.3-0.4C84.8,20.3,85.5,20.3,86.1,20.3z"/>
	<path fill="#FFFFFF" d="M69.4,22.6c0-0.6,0-1.2,0-1.9c0-0.3,0-0.5,0.4-0.4c0.4,0,0.4,0.2,0.3,0.4c0,1,0,2,0,3.1
		c0,0.3,0.1,0.5,0.5,0.5c0.6,0,1.3,0,1.9,0c0.3,0,0.3,0.1,0.3,0.4c0,0.2,0,0.4-0.3,0.4c-0.9,0-1.8,0-2.8,0c-0.3,0-0.3-0.1-0.3-0.3
		C69.4,23.9,69.4,23.2,69.4,22.6z"/>
</g>
</svg>
